<?xml version="1.0" standalone="no"?>
<!DOCTYPE svg PUBLIC "-//W3C//DTD SVG 20010904//EN"
 "http://www.w3.org/TR/2001/REC-SVG-20010904/DTD/svg10.dtd">
<svg version="1.0" xmlns="http://www.w3.org/2000/svg"
 width="988.000000pt" height="988.000000pt" viewBox="0 0 988.000000 988.000000"
 preserveAspectRatio="xMidYMid meet">
<metadata>
Created by potrace 1.14, written by Peter Selinger 2001-2017
</metadata>
<g transform="translate(0.000000,988.000000) scale(0.100000,-0.100000)"
fill="#000000" stroke="none">
<path d="M3980 8000 c-47 -9 -73 -24 -104 -61 -79 -94 -119 -299 -118 -609 0
-138 9 -213 27 -222 8 -5 20 -14 27 -21 7 -6 31 -25 53 -41 22 -17 42 -32 45
-36 3 -3 39 -32 80 -65 41 -32 77 -61 80 -64 3 -4 21 -17 40 -31 19 -13 40
-28 45 -32 36 -30 55 -45 72 -56 10 -7 56 -39 103 -72 47 -33 88 -60 92 -60 4
0 24 -12 45 -26 52 -35 171 -91 213 -99 19 -4 72 -8 117 -10 100 -3 135 14
163 78 36 82 45 280 20 453 -6 43 -13 93 -14 109 -4 34 -10 75 -32 190 -9 44
-17 91 -20 105 -3 14 -7 31 -10 39 -2 8 -7 30 -10 50 -3 20 -10 54 -16 76 -7
22 -12 43 -12 47 -1 3 -4 10 -8 14 -5 4 -8 15 -8 24 0 33 -60 70 -345 213
-186 94 -236 108 -375 111 -63 2 -131 0 -150 -4z"/>
<path d="M4995 7453 c29 -115 60 -233 69 -263 9 -30 17 -57 17 -60 1 -3 3 -9
5 -15 2 -5 17 -53 35 -105 32 -100 117 -285 147 -322 68 -84 96 -98 194 -95
92 3 150 31 227 108 59 58 123 134 130 153 2 6 7 13 11 16 3 3 31 43 62 90 60
91 77 130 58 130 -7 0 -69 32 -138 70 -69 39 -129 70 -133 70 -3 0 -12 7 -19
15 -7 8 -21 15 -30 15 -10 0 -20 3 -22 8 -1 4 -65 43 -141 87 -132 76 -180
104 -237 138 -14 8 -41 23 -60 34 -39 21 -54 30 -151 91 -36 23 -68 42 -71 42
-3 0 18 -93 47 -207z"/>
<path d="M3740 6582 l0 -452 401 0 401 0 -7 43 c-9 54 -35 114 -76 174 -44 64
-304 321 -480 474 -9 8 -52 46 -95 85 -82 74 -88 79 -122 108 l-22 19 0 -451z"/>
<path d="M6003 6968 c-60 -95 -163 -316 -180 -388 -8 -35 -4 -157 5 -182 22
-53 84 -87 193 -104 38 -5 154 -6 184 0 11 2 47 7 80 11 32 4 68 9 80 11 11 2
36 7 55 10 19 3 51 9 70 14 19 5 51 11 70 14 19 2 44 8 54 12 10 4 28 8 40 9
12 1 28 5 36 8 8 3 74 20 145 38 72 18 138 38 149 45 17 12 15 15 -30 37 -27
13 -69 35 -94 49 -25 14 -65 36 -90 50 -96 53 -171 96 -260 148 -8 5 -55 32
-105 61 -49 29 -103 60 -120 69 -16 10 -74 43 -127 74 -53 31 -104 56 -112 56
-9 0 -28 -19 -43 -42z"/>
<path d="M7095 6382 c-60 -13 -557 -187 -601 -210 -11 -6 -48 -24 -84 -41
-118 -56 -149 -78 -184 -135 -26 -42 -33 -154 -11 -196 56 -108 312 -251 820
-457 61 -25 124 -51 140 -58 68 -29 211 -86 226 -90 8 -2 35 -12 60 -23 24
-11 94 -39 154 -62 125 -48 300 -117 330 -129 11 -5 56 -23 100 -39 168 -64
301 -115 330 -127 67 -29 282 -105 297 -105 9 0 19 -4 22 -9 6 -10 53 -8 81 4
65 26 220 184 226 230 0 2 6 26 13 52 10 38 10 63 1 118 -26 151 -88 223 -317
372 -135 87 -147 94 -152 91 -2 -2 -12 4 -22 13 -23 21 -534 319 -546 319 -4
0 -8 4 -8 10 0 5 -3 9 -7 8 -5 -1 -62 29 -128 68 -66 39 -133 79 -150 88 -16
9 -37 21 -45 26 -54 34 -153 90 -160 90 -4 0 -13 7 -20 15 -7 8 -16 12 -21 9
-5 -3 -9 0 -9 5 0 6 -4 11 -9 11 -5 0 -50 25 -99 55 -50 30 -95 55 -101 55 -6
0 -11 4 -11 8 0 21 -75 43 -115 34z"/>
<path d="M1099 5913 c0 -102 -7 -212 -14 -240 -3 -13 -3 -23 0 -23 5 0 25 42
30 60 0 3 9 21 18 40 51 102 84 112 367 120 106 3 99 6 99 -52 -1 -29 0 -57 1
-63 1 -5 2 -12 1 -15 -5 -13 -5 -110 -1 -110 3 0 5 -29 5 -65 0 -36 -2 -65 -5
-65 -3 0 -4 -44 -3 -97 5 -206 5 -224 0 -229 -2 -3 -1 -20 3 -39 4 -19 5 -36
3 -39 -7 -7 -9 -106 -3 -106 3 0 5 -29 5 -65 0 -36 -4 -65 -8 -65 -5 0 -6 -4
-3 -9 3 -5 6 -39 6 -77 0 -38 0 -95 0 -126 0 -32 0 -66 0 -75 -1 -255 0 -244
-23 -266 -12 -12 -35 -39 -51 -60 l-28 -38 211 2 c143 1 211 5 214 12 4 14
-21 67 -33 67 -4 0 -11 17 -15 37 -7 41 -15 454 -15 868 0 143 0 354 0 468
l-1 208 153 -2 c161 -2 201 -10 247 -52 35 -33 69 -90 76 -131 13 -67 24 -36
20 57 -2 50 -7 110 -10 132 -3 22 -6 47 -6 55 0 8 -2 25 -5 38 l-4 22 -615 0
-615 0 -1 -77z"/>
<path d="M2608 5982 c-16 -7 -16 -10 -2 -37 8 -16 20 -32 25 -36 15 -9 22
-131 23 -396 1 -128 3 -233 6 -233 6 0 3 -228 -4 -246 -3 -7 -2 -15 2 -18 4
-3 5 -32 2 -66 -3 -34 -2 -64 2 -66 5 -3 6 -9 3 -14 -3 -5 -7 -122 -10 -262
-3 -139 -6 -260 -8 -268 -7 -33 -19 -60 -27 -60 -15 0 -30 -58 -16 -63 18 -7
416 -9 416 -2 0 4 -15 21 -33 38 -47 46 -78 88 -71 98 3 5 5 112 4 237 -1 125
-1 234 -1 242 0 8 0 70 0 138 l0 122 420 0 419 0 4 -55 c1 -30 1 -55 -2 -55
-5 0 -3 -255 2 -408 2 -39 1 -72 -2 -72 -3 0 -4 -45 -3 -100 2 -59 -1 -100 -7
-100 -5 0 -18 -7 -27 -15 -10 -8 -27 -21 -38 -29 -11 -8 -18 -17 -15 -19 6 -6
170 -17 318 -22 81 -3 102 -1 102 10 0 8 -4 16 -9 19 -5 3 -19 27 -32 53 l-24
48 -3 765 -3 765 52 55 52 55 -117 3 c-64 1 -169 1 -233 0 l-118 -3 52 -52
c50 -49 52 -55 53 -105 0 -29 1 -60 1 -68 0 -8 0 -51 0 -95 -1 -44 0 -108 1
-143 2 -34 1 -62 -2 -62 -3 0 -4 -52 -2 -115 l2 -115 -420 0 -420 0 0 324 1
324 49 51 c28 29 50 54 50 56 0 8 -393 4 -412 -3z"/>
<path d="M4356 5980 l-39 -5 52 -46 51 -46 1 -619 c0 -341 0 -626 0 -634 -1
-32 -1 -146 0 -160 1 -8 0 -50 -1 -92 -2 -61 -6 -79 -19 -83 -9 -3 -31 -19
-50 -35 l-34 -30 79 -1 c44 0 135 -2 204 -4 69 -2 285 -6 481 -10 196 -4 369
-8 384 -9 14 -2 28 2 30 8 2 6 6 74 9 151 4 77 8 153 10 168 5 41 -9 21 -29
-42 -22 -68 -65 -116 -114 -128 -21 -6 -184 -11 -363 -12 l-325 -2 -2 83 c-1
46 -2 90 -2 98 1 55 2 119 0 126 -1 5 -1 14 0 19 5 23 2 147 -2 152 -3 2 -2
17 3 32 4 15 3 35 -2 44 -6 11 -5 17 2 17 6 0 8 4 5 10 -3 5 -5 35 -5 67 1 32
1 66 1 76 0 17 16 18 251 16 141 -1 265 -6 282 -12 49 -16 71 -43 106 -125 18
-42 33 -78 35 -80 1 -2 2 49 1 113 0 65 2 119 7 122 4 2 4 9 1 15 -4 6 -7 73
-8 149 -2 136 -8 173 -21 127 -14 -47 -57 -124 -77 -137 -36 -22 -58 -24 -321
-28 l-258 -5 3 36 c1 19 -1 38 -4 41 -3 4 -3 19 2 34 4 16 4 34 0 41 -4 7 -4
25 0 40 4 15 4 33 0 40 -4 7 -4 25 0 40 4 15 3 34 -2 43 -5 10 -5 17 0 17 5 0
6 19 3 43 -4 23 -4 56 -1 72 3 17 3 49 -1 72 -3 24 -3 45 0 48 3 4 4 22 2 41
l-3 36 324 -5 c207 -3 336 -8 360 -16 49 -16 86 -56 124 -138 l32 -68 -5 55
c-10 104 -11 125 -12 208 l-1 83 -552 -3 c-304 -1 -571 -5 -592 -8z"/>
<path d="M6198 5383 c-36 -6 -50 -25 -58 -79 -8 -53 3 -124 29 -189 29 -72
135 -249 191 -318 5 -7 48 -61 95 -122 84 -107 124 -158 162 -202 10 -11 32
-38 50 -60 17 -21 40 -48 51 -61 11 -13 35 -41 52 -62 18 -22 42 -50 53 -63
12 -13 33 -37 46 -53 13 -16 38 -45 55 -65 17 -19 54 -62 81 -94 28 -32 59
-69 70 -81 11 -12 36 -41 55 -64 42 -52 79 -90 86 -90 3 0 38 19 77 42 119 70
131 77 160 90 15 7 27 16 27 20 0 4 4 8 10 8 5 0 44 20 86 45 41 25 79 45 84
45 5 0 15 6 22 13 7 7 56 37 108 66 98 56 184 105 210 121 8 5 116 68 240 141
124 72 241 142 260 154 19 12 62 39 94 60 68 43 69 42 -49 81 -44 15 -84 30
-89 35 -6 5 -20 9 -32 9 -13 0 -26 5 -29 10 -3 6 -15 10 -26 10 -10 0 -27 4
-37 10 -9 5 -96 37 -192 70 -176 62 -302 107 -395 140 -61 23 -162 58 -410
145 -104 36 -219 77 -255 91 -36 13 -71 24 -78 24 -7 0 -20 4 -30 10 -17 10
-359 127 -397 136 -11 3 -33 7 -50 10 -16 3 -41 7 -55 10 -37 7 -240 13 -272
7z"/>
<path d="M5758 4960 c-15 -9 -31 -48 -45 -110 -19 -84 -18 -365 2 -470 2 -14
7 -45 9 -70 3 -25 8 -65 11 -90 4 -25 8 -56 10 -70 4 -31 16 -108 21 -135 2
-11 5 -33 8 -50 11 -73 26 -162 31 -185 6 -28 7 -36 29 -165 9 -49 18 -101 21
-115 3 -14 10 -54 16 -89 5 -36 12 -67 14 -71 2 -3 6 -27 9 -52 3 -25 8 -52
10 -59 3 -8 7 -30 10 -49 3 -19 9 -48 12 -65 3 -16 7 -39 8 -50 0 -11 6 -20
11 -19 23 3 55 17 55 24 0 5 10 12 22 16 12 3 26 11 32 16 13 11 79 52 86 53
3 0 16 8 30 17 43 28 162 98 166 98 2 0 27 15 56 33 29 18 74 44 101 57 26 14
47 28 47 32 0 5 4 8 9 8 5 0 54 25 108 56 54 31 118 68 142 81 24 14 104 61
178 104 75 43 139 79 143 79 4 0 13 6 19 14 12 14 -29 66 -164 212 -5 6 -44
48 -85 94 -41 46 -86 95 -100 110 -14 15 -45 49 -69 76 -156 173 -346 371
-487 505 -110 104 -261 210 -324 227 -38 10 -137 11 -152 2z"/>
<path d="M3735 3968 c2 -68 6 -283 10 -478 17 -962 29 -1110 96 -1245 12 -24
35 -58 51 -76 39 -42 44 -36 103 126 26 72 52 144 58 160 7 17 12 32 13 35 0
3 4 12 7 20 8 19 88 242 91 255 2 6 9 24 15 40 7 17 14 37 16 45 2 8 20 60 40
115 20 55 45 125 55 155 69 202 92 267 100 285 14 30 52 153 50 161 -1 4 2 10
7 13 4 3 21 47 37 96 16 50 32 95 35 100 3 6 6 12 6 15 1 3 13 42 29 87 15 45
27 85 27 88 -1 3 5 18 13 33 7 15 17 42 21 60 l7 32 -445 0 -444 0 2 -122z"/>
<path d="M5155 4082 c-2 -2 -61 -5 -132 -8 -131 -4 -226 -11 -253 -19 -8 -3
-20 -17 -27 -32 -42 -100 -74 -179 -75 -183 0 -6 -16 -48 -25 -70 -3 -8 -7
-17 -8 -20 -4 -13 -18 -47 -25 -65 -5 -11 -36 -94 -70 -185 -35 -91 -69 -179
-76 -197 -8 -17 -14 -34 -14 -37 0 -4 -7 -23 -16 -44 -9 -20 -18 -44 -20 -52
-2 -12 -94 -255 -121 -320 -3 -8 -7 -19 -9 -25 -2 -5 -39 -104 -84 -220 -45
-115 -83 -214 -84 -220 -4 -13 -15 -43 -31 -80 -66 -159 -78 -197 -64 -206 28
-17 252 20 334 56 17 7 37 16 45 19 8 3 38 19 65 34 28 15 86 47 130 71 44 23
112 60 150 82 39 22 81 45 95 52 14 6 27 14 30 17 3 3 19 12 35 20 17 8 32 17
35 20 3 3 21 13 40 24 66 34 145 79 182 103 21 12 39 23 42 23 2 0 34 18 70
40 36 22 70 40 76 40 5 0 10 5 10 10 0 6 9 10 20 10 11 0 20 4 20 8 0 4 34 26
75 47 41 22 75 43 75 47 0 5 4 8 10 8 11 0 159 89 178 108 8 6 23 17 34 23 11
6 26 25 33 43 14 34 14 44 -12 191 -15 88 -19 111 -27 158 -2 12 -6 33 -10 47
-3 14 -8 37 -11 53 -3 15 -7 37 -10 50 -12 61 -16 84 -21 112 -3 17 -10 48
-16 70 -6 22 -12 49 -13 60 -2 11 -8 45 -14 75 -6 30 -13 64 -15 75 -21 105
-38 180 -42 185 -6 5 -453 7 -459 2z"/>
</g>
</svg>
