<?xml version="1.0" encoding="utf-8"?>
<!DOCTYPE svg PUBLIC "-//W3C//DTD SVG 1.0//EN" "http://www.w3.org/TR/2001/REC-SVG-20010904/DTD/svg10.dtd">
<svg version="1.0" xmlns="http://www.w3.org/2000/svg" width="494px" height="347px" viewBox="0 0 494 347" preserveAspectRatio="xMidYMid meet">
 <g fill="#020202">
  <path d="M200.4 315.1 c0.4 -0.6 8.8 -22.6 18.7 -48.8 9.9 -26.3 18.3 -48.1 18.7 -48.4 1.1 -1.2 43.2 -2.3 43.2 -1.2 0 0.5 2.3 11.7 5 24.9 2.8 13.1 4.9 25.4 4.8 27.2 -0.3 3.3 -1 3.8 -34.1 22.7 -18.5 10.6 -36.1 20.2 -39 21.3 -6.3 2.4 -18.3 4 -17.3 2.3z"/>
  <path d="M194.8 312.3 c-5.8 -6.6 -6.6 -12.8 -7.4 -58 l-0.7 -38.3 22.2 0 22.2 0 -0.6 2.3 c-2.3 7.6 -32.1 92.1 -33.3 94.3 -0.7 1.2 -1.1 1.2 -2.4 -0.3z"/>
  <path d="M297 268.7 c0 -0.1 -1.6 -8.8 -3.5 -19.2 -8.5 -45.7 -10.3 -63.7 -7.3 -73.6 1.1 -3.7 1.3 -3.9 5.2 -3.9 8.9 0 19.9 9.6 51.2 44.4 l15.2 16.9 -27.6 15.9 c-15.3 8.8 -28.9 16.8 -30.4 17.9 -1.6 1.1 -2.8 1.8 -2.8 1.6z"/>
  <path d="M343.2 211.5 c-28.2 -32.9 -36.4 -45 -36.4 -54.2 0 -2.7 0.6 -4.9 1.4 -5.4 2.2 -1.4 13.6 -1 20.2 0.7 3.3 0.9 27.9 9.4 54.6 18.9 26.7 9.5 49 17.4 49.7 17.6 1 0.3 -23.4 14.7 -67.6 40 l-4.6 2.6 -17.3 -20.2z"/>
  <path d="M77.4 206.9 l2.6 -3.1 0 -38.5 0 -38.5 -9.5 0.4 c-10.7 0.3 -12.2 1.2 -15 8.3 l-1.5 4 0.5 -4 c0.2 -2.2 0.5 -6.4 0.5 -9.2 l0 -5.3 30.8 0 30.8 0 1 8.5 c0.9 8.2 0.2 11.6 -1.1 5.5 -0.4 -1.6 -2 -4.1 -3.7 -5.5 -2.6 -2.2 -3.8 -2.5 -11.4 -2.5 l-8.4 0 0 38.9 c0 24.8 0.4 39.2 1 39.6 0.5 0.3 1.5 1.5 2 2.6 1 1.8 0.7 1.9 -10.1 1.9 l-11.1 0 2.6 -3.1z"/>
  <path d="M130 208.1 c0.5 -1.1 1.5 -2.3 2 -2.6 1.4 -0.8 1.4 -79.2 0 -80 -0.5 -0.3 -1.5 -1.5 -2 -2.6 -1 -1.8 -0.7 -1.9 10.2 -1.9 l11.2 0 -2.7 2.8 -2.7 2.8 0 16.2 0 16.2 21 0 21 0 0 -16.2 0 -16.2 -2.7 -2.8 -2.7 -2.8 11.9 0 11.9 0 -2.7 2.8 -2.7 2.8 0 38.8 c0 37.4 0.1 38.9 2 41.3 1.1 1.5 1.8 2.8 1.6 3.1 -0.3 0.2 -5.2 0.1 -11 -0.3 l-10.6 -0.7 2.5 -2 2.5 -1.9 0 -19.5 0 -19.4 -21 0 -21 0 0 19.2 0 19.2 2.7 2.8 2.7 2.8 -11.2 0 c-10.9 0 -11.2 -0.1 -10.2 -1.9z"/>
  <path d="M226.7 209.2 l-10.9 -0.3 2.6 -2 2.6 -2 0 -39.4 0 -39.4 -2.5 -1.9 c-1.4 -1.1 -2.5 -2.3 -2.5 -2.6 0 -0.3 13.3 -0.6 29.5 -0.6 l29.5 0 0 3.9 c0 2.1 0.2 6 0.5 8.7 l0.5 4.9 -1.9 -4.1 c-3.3 -7.1 -4.3 -7.4 -23.3 -7.4 l-16.8 0 0 16 0 16 13.8 0 c15.6 0 15.9 -0.1 18.6 -7.6 1.4 -3.7 1.5 -3.1 1.5 11.1 l0 15 -1.7 -4.1 c-3.1 -7.5 -2.9 -7.4 -18.3 -7.4 l-13.9 0 0 18.5 0 18.5 17.8 0 c20 0 19.7 0.1 22.7 -7.6 l1.5 -3.9 -0.5 4.9 c-0.3 2.7 -0.5 6.9 -0.5 9.3 l0 4.5 -18.7 -0.4 c-10.4 -0.2 -23.7 -0.4 -29.6 -0.6z"/>
  <path d="M423 181.4 c-82 -31.6 -100.1 -39.4 -108.7 -46.9 -3.9 -3.3 -4.3 -4.1 -4.3 -8.4 0 -8 4.6 -11 30.6 -20.1 15.5 -5.4 16.2 -5.5 18.5 -3.9 1.3 0.9 18.6 11 38.4 22.4 41.5 23.9 47.5 27.9 51 33.9 2.9 4.9 3.4 12.1 1.1 16.5 -2.2 4.2 -10.2 11.1 -12.8 11 -1.3 0 -7.5 -2.1 -13.8 -4.5z"/>
  <path d="M187 91.4 l0 -22.6 4.3 3.8 c29.6 26.5 33.7 31 35.2 38.2 l0.7 3.2 -20.1 0 -20.1 0 0 -22.6z"/>
  <path d="M299.5 105.5 c-7.8 -1.6 -9.1 -3.5 -8.5 -13 0 -1.6 2.4 -7.6 5.2 -13.2 4.6 -9 5.4 -10.1 7 -9.2 1.1 0.6 11.5 6.6 23.3 13.5 11.8 6.8 21.9 12.4 22.5 12.4 0.5 0 1 0.4 1 0.8 0 1.1 -24.4 6.9 -35.6 8.5 -7.1 1 -10.3 1.1 -14.9 0.2z"/>
  <path d="M231.8 94.6 c-6.3 -2.3 -16.7 -9 -28.8 -18.6 -6.3 -5.1 -12.3 -9.8 -13.3 -10.5 -1.6 -1.1 -1.8 -2.8 -1.8 -13 0 -18.4 3.1 -29 9.2 -31.6 1.7 -0.6 6 -1 10.3 -0.7 6.9 0.3 8.6 0.9 19.8 6.6 6.8 3.4 13.1 6.9 14.1 7.6 1.3 1 2.6 5.7 4.7 16.2 4.9 24.3 5 39.2 0.4 43.9 -1.9 1.9 -9.4 1.9 -14.6 0.1z"/>
  <path d="M265.5 88.6 c-5 -5 -10.1 -17.8 -15 -37.6 -1.4 -5.8 -2.8 -11.3 -3.1 -12.4 -0.6 -1.7 -0.4 -1.7 2.2 0.2 4.5 3.1 46.5 27.2 47.5 27.2 1.7 0 0.9 1.7 -4.9 10.1 -7.7 11 -12.7 14.9 -19.3 14.9 -3.9 0 -5.5 -0.5 -7.4 -2.4z"/>
 </g>
</svg>